<?xml version="1.0" encoding="UTF-8"?>
<svg width="293px" height="208px" viewBox="0 0 293 208" version="1.1" xmlns="http://www.w3.org/2000/svg" xmlns:xlink="http://www.w3.org/1999/xlink">
    <!-- Generator: Sketch 54.1 (76490) - https://sketchapp.com -->
    <title>Group 4</title>
    <desc>Created with Sketch.</desc>
    <g id="Page-1" stroke="none" stroke-width="1" fill="none" fill-rule="evenodd">
        <g id="Desktop-HD-Copy-64" transform="translate(-971.000000, -1544.000000)" fill="#0052F1">
            <g id="Group-4" transform="translate(971.000000, 1544.000000)">
                <path d="M28.7487632,191.116831 C28.7487632,184.688738 23.8406571,181.312418 16.4798294,181.312418 L7.97386577,181.312418 L7.97386577,200.282623 L16.4798294,200.282623 C23.8406571,200.282623 28.7487632,197.469023 28.7487632,191.116831 L28.7487632,191.116831 Z M7.97386577,174.235233 L15.3346934,174.235233 C22.2055094,174.235233 26.2933786,170.696641 26.2933786,165.718532 C26.2933786,160.648818 22.2055094,157.835218 15.3346934,157.835218 L7.97386577,157.835218 L7.97386577,174.235233 Z M36.7647152,191.038312 C36.7647152,200.766824 29.1562186,207.351956 17.6223023,207.351956 L0.120363329,207.351956 L0.120363329,150.765886 L14.2694506,150.765886 C26.7034971,150.765886 34.1442179,155.830365 34.1442179,165.553642 C34.1442179,170.861531 30.9564789,174.876472 27.1935088,176.970314 C33.2440878,178.736993 36.7647152,184.764639 36.7647152,191.038312 L36.7647152,191.038312 Z" id="Fill-1"></path>
                <path d="M60.4506992,156.310585 C60.4506992,153.037383 63.1627781,150.419355 66.5535665,150.419355 C69.9388369,150.419355 72.6509158,153.037383 72.6509158,156.310585 C72.6509158,159.578459 69.9388369,162.193824 66.5535665,162.193824 C63.1627781,162.193824 60.4506992,159.578459 60.4506992,156.310585 L60.4506992,156.310585 Z M84.8566502,200.806414 L84.8566502,208 L50.9625616,208 L50.9625616,200.806414 L63.8414876,200.806414 L63.8414876,177.249485 L52.3172215,177.249485 L52.3172215,170.04791 L71.9749653,170.04791 L71.9749653,200.806414 L84.8566502,200.806414 Z" id="Fill-4"></path>
                <path d="M127.71214,187.674662 C127.71214,180.726771 123.549959,174.801765 117.057389,174.801765 C110.56753,174.801765 106.408058,180.726771 106.408058,187.674662 C106.408058,194.622553 110.56753,200.544803 117.057389,200.544803 C123.549959,200.544803 127.71214,194.622553 127.71214,187.674662 M135.697783,187.674662 C135.697783,198.851944 128.378739,208 117.057389,208 C105.738749,208 98.4142857,198.851944 98.4142857,187.674662 C98.4142857,176.497381 105.738749,167.354839 117.057389,167.354839 C128.378739,167.354839 135.697783,176.497381 135.697783,187.674662" id="Fill-6"></path>
                <path d="M186.538916,186.296409 L186.538916,208 L178.405439,208 L178.405439,186.296409 C178.405439,178.983365 176.201012,174.928663 169.929847,174.928663 C165.016101,174.928663 160.778305,179.583438 160.778305,187.333919 L160.778305,208 L152.644828,208 L152.644828,168.041839 L160.778305,168.041839 L160.778305,173.557467 C162.389551,170.711324 165.77758,167.354839 171.458323,167.354839 C181.117517,167.354839 186.538916,174.070614 186.538916,186.296409" id="Fill-8"></path>
                <path d="M203.485961,189.052632 L203.485961,167.354839 L211.619438,167.354839 L211.619438,189.739537 C211.619438,196.375882 213.826624,200.41881 220.09503,200.41881 C225.011535,200.41881 229.246572,195.773088 229.246572,187.331163 L229.246572,167.354839 L237.380049,167.354839 L237.380049,207.307487 L229.246572,207.307487 L229.246572,201.801031 C227.638085,204.63837 224.247297,208 218.572072,208 C208.910118,208 203.485961,201.279544 203.485961,189.052632" id="Fill-10"></path>
                <path d="M291.610591,184.925213 L291.610591,208 L283.350133,208 L283.350133,185.612213 C283.350133,178.296365 283.176406,174.931467 278.872449,174.931467 C275.2606,174.931467 273.708262,179.586242 273.708262,186.646919 L273.708262,208 L265.447803,208 L265.447803,185.612213 C265.447803,178.296365 265.27968,174.931467 260.972921,174.931467 C257.355468,174.931467 255.811536,179.586242 255.811536,187.333919 L255.811536,208 L247.548276,208 L247.548276,168.041839 L255.811536,168.041839 L255.811536,173.206957 C257.103283,170.453349 259.168398,167.354839 263.895465,167.354839 C267.168265,167.354839 270.527929,169.589692 271.643147,173.899565 C273.884791,169.163471 276.97826,167.354839 281.111291,167.354839 C288.166866,167.354839 291.610591,172.696614 291.610591,184.925213" id="Fill-12"></path>
                <path d="M36.9664516,77.2491226 L36.9664516,103.402929 L94.7319653,103.402929 C100.688549,103.402929 105.100833,101.980348 107.96337,99.1351871 C110.226709,96.8780258 111.362463,93.8567355 111.362463,90.0604774 L111.362463,89.3478323 C111.362463,85.5515742 110.226709,82.7037032 107.96337,80.806929 C105.220673,78.4359613 100.808389,77.2491226 94.7319653,77.2491226 L36.9664516,77.2491226 Z M36.9664516,27.6078323 L36.9664516,51.2714452 L91.8667043,51.2714452 C101.524704,51.2714452 106.356427,47.4155742 106.356427,39.7092516 L106.356427,39.3542839 C106.356427,35.7883484 105.220673,32.9431871 102.957334,30.8079613 C100.688549,28.6727355 96.99258,27.6078323 91.8667043,27.6078323 L36.9664516,27.6078323 Z M0.121156208,0.0287354839 L97.2349833,0.0287354839 C114.402037,0.0287354839 127.09961,3.4104129 135.324979,10.1710581 C141.646529,15.3926065 144.805942,22.4458968 144.805942,31.3471871 L144.805942,33.2981548 C144.805942,40.8933806 142.000601,47.1771226 136.400813,52.1575097 C131.74885,56.194929 126.386018,58.6282194 120.304147,59.4573806 C129.125992,60.9991871 136.221054,64.0855097 141.583885,68.710929 C148.139668,74.6397032 151.421644,82.470671 151.421644,92.1957032 L151.421644,94.1493806 C151.421644,99.0159613 150.555529,103.700994 148.828747,108.207187 C147.101964,112.71609 144.383779,116.628865 140.693257,119.950929 C131.50917,128.253381 117.20193,132.404606 97.7688152,132.404606 L0.121156208,132.404606 L0.121156208,0.0287354839 Z" id="Fill-14"></path>
                <path d="M174.10548,35.0756783 L208.468663,35.0756783 L208.468663,51.0384414 C211.909591,46.5648888 216.304976,42.8152835 221.641261,39.7923888 C229.832785,35.0756783 238.794382,32.7159414 248.528764,32.7159414 L250.310237,32.7159414 C263.840758,32.7159414 274.464521,36.7694941 282.178815,44.871073 C285.500436,48.3802835 288.027579,52.3730467 289.746687,56.8465993 C291.468507,61.3229151 292.330773,65.8572572 292.330773,70.4523888 L292.330773,135.770678 L257.609668,135.770678 L257.609668,83.3369941 C257.609668,77.1668625 255.830907,71.9030467 252.270671,67.551073 C248.230496,62.8343625 242.121426,60.4746256 233.929902,60.4746256 C225.976993,60.4746256 219.745904,62.9559414 215.233923,67.9130467 C213.09724,70.0904151 211.497439,72.6656783 210.429097,75.6250204 C209.360755,78.5871256 208.829296,81.5823888 208.829296,84.6052835 L208.829296,135.770678 L174.10548,135.770678 L174.10548,35.0756783 Z" id="Fill-17"></path>
            </g>
        </g>
    </g>
</svg>