<?xml version="1.0" encoding="UTF-8"?>
<svg width="105px" height="55px" viewBox="0 0 105 55" version="1.1" xmlns="http://www.w3.org/2000/svg" xmlns:xlink="http://www.w3.org/1999/xlink">
    <!-- Generator: Sketch 54.1 (76490) - https://sketchapp.com -->
    <title>Group 7</title>
    <desc>Created with Sketch.</desc>
    <g id="Page-1" stroke="none" stroke-width="1" fill="none" fill-rule="evenodd">
        <g id="Desktop-HD-Copy-52" transform="translate(-8.000000, -814.000000)" fill="#FEFEFE">
            <g id="Group-7" transform="translate(8.000000, 813.000000)">
                <polygon id="Fill-1" points="60.7555915 39.4971574 60.7555915 16.0069447 52.0124426 13.5941787 34.7584851 39.4971574 34.7584851 16.0069447 26.0165277 13.5941787 8.7530383 39.5102638 8.74231489 13.8658383 0.000357446809 13.8658383 0.0170382979 52.2782638 8.75661277 55.2343489 8.76018723 55.2343489 26.0165277 29.5446468 26.0165277 52.5237106 34.7572936 55.2343489 34.7572936 55.2343489 34.7572936 55.2343489 34.7572936 55.2343489 34.7584851 55.2343489 34.7584851 55.2343489 34.7584851 55.231966 52.0124426 29.5446468 52.0124426 52.5237106 60.7532085 55.2343489 60.7532085 55.2343489 60.7544 55.2343489 60.7544 55.2343489 60.7555915 55.2343489 60.7555915 55.2343489 60.7555915 55.231966 78.0095489 29.5446468 78.0095489 52.5237106 86.7491234 55.2343489 86.7526979 55.2343489 86.7526979 55.2343489 104.365294 29.014434 104.007847 13.6442213 86.7526979 39.5102638 86.7526979 16.0069447 78.0095489 13.5941787"></polygon>
                <g id="Group-6" transform="translate(25.021277, 0.426315)">
                    <path d="M6.00689362,10.8810383 C8.80093617,10.8810383 11.064766,8.61601702 11.064766,5.82316596 C11.064766,3.0291234 8.80093617,0.765293617 6.00689362,0.765293617 C3.21404255,0.765293617 0.949021277,3.0291234 0.949021277,5.82316596 C0.949021277,8.61601702 3.21404255,10.8810383 6.00689362,10.8810383" id="Fill-2"></path>
                    <path d="M57.4957957,10.8810383 C60.2898383,10.8810383 62.5536681,8.61601702 62.5536681,5.82316596 C62.5536681,3.0291234 60.2898383,0.765293617 57.4957957,0.765293617 C54.7029447,0.765293617 52.4379234,3.0291234 52.4379234,5.82316596 C52.4379234,8.61601702 54.7029447,10.8810383 57.4957957,10.8810383" id="Fill-4"></path>
                </g>
            </g>
        </g>
    </g>
</svg>